# xmcd
#
# Track frame offsets:
#	150
#	6760
#	22622
#	40135
#	57992
#	71780
#	89470
#	111157
#	134732
#	159055
#	179390
#	201190
#	221717
#	240895
#	259282
#	277152
#
# Disc length: 3930
#
# Revision: 1
# Processed by: cddbd v1.5.1PL0 Copyright (c) Steve Scherf et al.
# Submitted via: dBpowerAMP V4.0
# Normalized: r0:TRMNUM
#
DISCID=e20f5810
DTITLE=Yahzarah - Blackstar
DYEAR=2003
DGENRE=R&B
TTITLE0=Yah Intro
TTITLE1=One Day
TTITLE2=Wishing
TTITLE3=Nova
TTITLE4=So Amazing
TTITLE5=Cry
TTITLE6=Love Is You
TTITLE7=Blackstar
TTITLE8=Feel Me
TTITLE9=Roof Top
TTITLE10=Same Page
TTITLE11=Bury It
TTITLE12=Baby
TTITLE13=Friday
TTITLE14=BabyLove
TTITLE15=BlackStar Remix
EXTD=
EXTT0=
EXTT1=
EXTT2=
EXTT3=
EXTT4=
EXTT5=
EXTT6=
EXTT7=
EXTT8=
EXTT9=
EXTT10=
EXTT11=
EXTT12=
EXTT13=
EXTT14=
EXTT15=
PLAYORDER=
